<svg xmlns="http://www.w3.org/2000/svg" viewBox="0 0 270 270"><defs><style>.cls-1{fill:#ed1e79;}.cls-2{fill:#ffce60;}.cls-3{fill:#fdb84f;}</style></defs><title>Asset 3</title><g id="Layer_2" data-name="Layer 2"><g id="Layer_1-2" data-name="Layer 1"><circle class="cls-1" cx="135" cy="135" r="135"/><path class="cls-2" d="M46,315.91l197.11-144c4.46-3.26,5.48-10.13,1.71-11.58L188.7,138.63,259.91,53.3c2.4-2.88.84-6.4-2.08-4.68L92.14,146.25c-4.83,2.84-6.39,10.27-2.51,12l60.23,26.37L43.57,311.44C41,314.5,43,318.12,46,315.91Z" transform="translate(-17 -48)"/><path class="cls-3" d="M121.63,150.67c-1.47-.71-1-3.53.88-4.8L261,50c-.2-1.49-1.45-2.37-3.21-1.33L92.14,146.25c-4.83,2.84-6.39,10.27-2.51,12l60.23,26.37L43.57,311.44c-1.43,1.71-1.42,3.56-.64,4.5L166.4,190.43c5.78-5.88,6.5-15,1.37-17.5l-46.14-22.26Z" transform="translate(-17 -48)"/></g></g></svg>