<svg xmlns="http://www.w3.org/2000/svg" viewBox="0 0 174.88 95.61"><defs><style>.cls-1{fill:none;}.cls-2{fill:#ff7f00;}.cls-3{fill:#c5c8c9;}.cls-4{fill:#0e0f0f;}.cls-5{fill:#4c4c4c;}.cls-6{fill:#d9dfe7;}.cls-7{fill:#014051;}.cls-8{fill:#217390;}.cls-9{fill:#f01a25;}.cls-10{fill:#838484;}.cls-11{fill:#e0e1e2;}.cls-12{fill:#e6eaef;}.cls-13{fill:#c4c9ce;}</style></defs><title>bicycle</title><g id="Layer_2" data-name="Layer 2"><g id="_1" data-name="1"><g id="_10" data-name="10"><path class="cls-1" d="M140.92,55.54l17.29-19.79a31.18,31.18,0,0,0-5.46-3.66l-12.36,23A4.09,4.09,0,0,1,140.92,55.54Z"/><path class="cls-1" d="M37.2,62.73l.06.27.7.19-.26-.61A3.65,3.65,0,0,1,37.2,62.73Z"/><path class="cls-1" d="M32.14,59.72,6.37,64.34A29.36,29.36,0,0,0,8.14,70.6L32.35,60.31A5.89,5.89,0,0,1,32.14,59.72Z"/><path class="cls-1" d="M38.79,62,40,63.73l2.3.61-3.1-2.73A5.32,5.32,0,0,1,38.79,62Z"/><path class="cls-1" d="M36.6,62.83l.31.08,0-.12Z"/><path class="cls-1" d="M141.57,56.26,163,40.75A31.05,31.05,0,0,0,158.46,36l-17.3,19.8A3.31,3.31,0,0,1,141.57,56.26Z"/><path class="cls-1" d="M32.49,60.6,8.26,70.9a30.74,30.74,0,0,0,3.15,5.74L32.82,61.12A4.59,4.59,0,0,1,32.49,60.6Z"/><path class="cls-1" d="M139.18,54.61,146,29.53a30.86,30.86,0,0,0-6.49-.89l-1,25.85A4.94,4.94,0,0,1,139.18,54.61Z"/><path class="cls-1" d="M66.35,56.57a1,1,0,0,1,.14-1.42l.28-.24c-.07-.46-.14-.91-.23-1.36l-13,2.34L67,57.2c0-.09,0-.18,0-.27A1.07,1.07,0,0,1,66.35,56.57Z"/><path class="cls-1" d="M33.71,62,16.2,82a30.5,30.5,0,0,0,5.39,3.84L34.22,62.34A4.45,4.45,0,0,1,33.71,62Z"/><path class="cls-1" d="M140.11,55l12.35-23a30.63,30.63,0,0,0-6.14-2.33L139.49,54.7C139.7,54.78,139.91,54.87,140.11,55Z"/><path class="cls-1" d="M38,62.46l.35.83,1.2.31-1-1.42A4.3,4.3,0,0,1,38,62.46Z"/><path class="cls-1" d="M73,60.11a5.92,5.92,0,0,1,.41-.45L73,59.24C73,59.53,73,59.82,73,60.11Z"/><path class="cls-1" d="M74.25,58.84c.23-.19.47-.37.71-.54l-1.34-.14Z"/><path class="cls-1" d="M136.39,62.6,123.86,86A30,30,0,0,0,130,88.51l7-25.71A3.38,3.38,0,0,1,136.39,62.6Z"/><path class="cls-1" d="M135.59,62.13,118.25,82a31.12,31.12,0,0,0,5.32,3.83l12.52-23.34A5.39,5.39,0,0,1,135.59,62.13Z"/><path class="cls-1" d="M64.52,47,45.42,55.1l6.88.67,14.18-2.54A30.28,30.28,0,0,0,64.52,47Z"/><path class="cls-1" d="M142.3,58l26.32-4.72a30.56,30.56,0,0,0-2-6.3l-24.5,10.41A3.2,3.2,0,0,1,142.3,58Z"/><path class="cls-1" d="M39.45,61.37,43,64.52l6.73,1.76-9.95-5.39A4.29,4.29,0,0,1,39.45,61.37Z"/><path class="cls-1" d="M142,57.1l24.48-10.4A31.1,31.1,0,0,0,163.18,41L141.75,56.53A4.37,4.37,0,0,1,142,57.1Z"/><path class="cls-1" d="M142.36,58.72a1.93,1.93,0,0,1,0,.24l26.77,1.26,0,.32-26.78-1.26a5.79,5.79,0,0,1-.12.6L168,67.07l-.09.31L142.1,60.19a4.41,4.41,0,0,1-.24.54l23.59,12.78-.15.28L141.69,61a4.29,4.29,0,0,1-.36.48l20.15,17.72-.21.24L141.11,61.73a4.11,4.11,0,0,1-.45.38l15.67,21.77-.27.19L140.4,62.3a5.21,5.21,0,0,1-.52.28l10.38,24.71-.3.12L139.58,62.7a4.13,4.13,0,0,1-.5.15l5,26.32-.32.06-5-26.32a5.42,5.42,0,0,1-.58.06l-1.05,26.74h-.33l1-26.75a3.81,3.81,0,0,1-.59-.07l-7,25.72a30.56,30.56,0,0,0,38.93-29.4,31,31,0,0,0-.51-5.58l-26.34,4.72C142.35,58.47,142.36,58.59,142.36,58.72Z"/><path class="cls-1" d="M66.37,65.7,52,63l14.06,3.91C66.18,66.52,66.28,66.11,66.37,65.7Z"/><path class="cls-1" d="M48.35,62.33l-8-1.48,10.68,5.78L65,70.27a27.55,27.55,0,0,0,1-3Z"/><path class="cls-1" d="M33,61.37,11.59,76.9A31.46,31.46,0,0,0,16,81.82l17.5-20A4.57,4.57,0,0,1,33,61.37Z"/><path class="cls-1" d="M36.5,89.77A30.61,30.61,0,0,0,63.42,73.68L51,66.93,43.58,65l16,14.09-.21.24L42.88,64.81l-2.54-.66L54.45,83.76l-.26.19L39.84,64l-1.33-.35,9.87,23.5-.3.13-10-23.74-.8-.2L42.2,89.05l-.32.06L37,63.27l-.69-.18-1,26.51-.32,0L36,63l-.61-.16-7,25.74L28,88.5l7-25.74-.61-.16L21.87,86A30.41,30.41,0,0,0,36.5,89.77Z"/><path class="cls-1" d="M36.24,54.35h.07l1-25.72H36.5a30.28,30.28,0,0,0-5.67.53L35.62,54.4A4.21,4.21,0,0,1,36.24,54.35Z"/><path class="cls-1" d="M35.3,54.46,30.51,29.22A30.14,30.14,0,0,0,24.78,31l9.94,23.68A3.89,3.89,0,0,1,35.3,54.46Z"/><path class="cls-1" d="M37.24,54.48v-.17h.1l6.74-24.74a30.5,30.5,0,0,0-6.45-.93l-1,25.72A4.1,4.1,0,0,1,37.24,54.48Z"/><path class="cls-1" d="M72.48,72.24A10.12,10.12,0,0,1,71.3,70c-.18.6-.39,1.18-.6,1.76Z"/><path class="cls-1" d="M64.87,70.58l-12.59-3.3,11.29,6.11C64.05,72.48,64.48,71.54,64.87,70.58Z"/><path class="cls-1" d="M138.18,54.48l1-25.85h-.58a31.11,31.11,0,0,0-5.92.57l4.6,24.24.64,1h.24Z"/><path class="cls-1" d="M38.29,54.74l-.37,0,.31.15Z"/><path class="cls-1" d="M49.58,59.59l17.27,3.23c.1-.79.16-1.59.19-2.4Z"/><path class="cls-1" d="M38.46,54.43,50.48,32a29.82,29.82,0,0,0-6.08-2.36L37.68,54.35Z"/><polygon class="cls-1" points="44.12 55.3 42.59 55.16 40.73 56.75 44.12 55.3"/><path class="cls-1" d="M40.42,57.88h0L51.13,56l-6.34-.61-4.51,1.92A3.9,3.9,0,0,1,40.42,57.88Z"/><path class="cls-1" d="M111.83,44.48l21.94,11.88L132.29,54,115.51,39.21A30.32,30.32,0,0,0,111.83,44.48Z"/><path class="cls-1" d="M32.07,57.8l-25-7A30.51,30.51,0,0,0,6,57.22l26,1.22A4.48,4.48,0,0,1,32.07,57.8Z"/><path class="cls-1" d="M109.25,50.71,134,57.6q.07-.27.18-.54l-.09-.15L111.68,44.76A30.33,30.33,0,0,0,109.25,50.71Z"/><path class="cls-1" d="M32,58.77,6,57.54c0,.55-.05,1.1-.05,1.66A30.64,30.64,0,0,0,6.31,64L32.07,59.4A4.5,4.5,0,0,1,32,58.77Z"/><path class="cls-1" d="M32.36,56.86,9.66,44.57a31.22,31.22,0,0,0-2.48,6l25,6.95A6.5,6.5,0,0,1,32.36,56.86Z"/><path class="cls-1" d="M84.67,57.34,112.22,21,71,28.55l9,28q.33,0,.66,0A9.88,9.88,0,0,1,84.67,57.34Z"/><path class="cls-1" d="M34.42,54.77,24.48,31.09a30.66,30.66,0,0,0-5.65,3.17l15,20.84A3.84,3.84,0,0,1,34.42,54.77Z"/><path class="cls-1" d="M115.72,39l16,14.07L120.38,34.68A30.51,30.51,0,0,0,115.72,39Z"/><path class="cls-1" d="M33.57,55.3l-15-20.85a30.36,30.36,0,0,0-4.8,4.33l19.31,17A4.29,4.29,0,0,1,33.57,55.3Z"/><path class="cls-1" d="M32.87,56,13.55,39a31,31,0,0,0-3.73,5.27L32.51,56.57A4.1,4.1,0,0,1,32.87,56Z"/><path class="cls-1" d="M134,59.83,108.5,64.41a30.64,30.64,0,0,0,1.76,6.2l24-10.18A3.86,3.86,0,0,1,134,59.83Z"/><path class="cls-1" d="M86.44,71.74h0a5.66,5.66,0,0,0,.43-.54C86.73,71.4,86.59,71.57,86.44,71.74Z"/><polygon class="cls-1" points="82.27 60.5 81.94 59.93 81.11 59.93 81.58 61.41 82.27 60.5"/><polygon class="cls-1" points="78.14 71.1 79.41 73.3 81.94 73.3 83.21 71.1 81.94 68.91 79.41 68.91 78.14 71.1"/><polygon class="cls-1" points="86.35 64.31 85.08 64.31 82.92 67.16 83.81 68.7 86.35 68.7 87.61 66.5 86.35 64.31"/><path class="cls-1" d="M56.42,36l-12,13.78,14-11.94C57.76,37.23,57.1,36.61,56.42,36Z"/><path class="cls-1" d="M124.21,32.24l8.08,13.09L126.36,31.2C125.62,31.52,124.91,31.87,124.21,32.24Z"/><polygon class="cls-1" points="77.48 64.31 74.94 64.31 74.93 64.33 77.8 64.86 77.48 64.31"/><polygon class="cls-1" points="77.96 67.86 74.04 67.13 74.94 68.7 77.48 68.7 77.96 67.86"/><path class="cls-1" d="M72.9,66.91l-.74-.13c-.07.33-.14.66-.22,1a8.81,8.81,0,0,0,2.49,5l2.78.73A7.78,7.78,0,0,1,72.9,66.91Z"/><path class="cls-1" d="M82.74,74.18a9.16,9.16,0,0,1-2,.21,9.62,9.62,0,0,1-2.15-.22l-3.64-1a8.85,8.85,0,0,0,11.35.1l-.5-.53A7.74,7.74,0,0,1,82.74,74.18Z"/><path class="cls-1" d="M73.29,64a7.79,7.79,0,0,1,1.62-2.75l-.72-.76a8.93,8.93,0,0,0-1.35,1.93c0,.49-.1,1-.17,1.47Z"/><path class="cls-1" d="M88.56,67.46A7.82,7.82,0,0,1,86.67,72l.48.51A8.82,8.82,0,0,0,87.58,61l-.6.79A9.11,9.11,0,0,1,88.56,67.46Z"/><path class="cls-1" d="M81.64,58.62a7,7,0,0,1,1.71.46l.59-.78a8.85,8.85,0,0,0-3.27-.62h-.29l.27.84Z"/><path class="cls-1" d="M76.37,60,76,59a9.68,9.68,0,0,0-1,.7l.72.76A6.36,6.36,0,0,1,76.37,60Z"/><path class="cls-1" d="M64.39,46.69a29.69,29.69,0,0,0-3.31-5.64L48.19,50.39l-5.25,4.47,1.8.18Z"/><path class="cls-1" d="M134.37,60.72l-24,10.19a29.85,29.85,0,0,0,3.11,5.69l21.2-15.36A5.69,5.69,0,0,1,134.37,60.72Z"/><path class="cls-1" d="M60.32,40.06l-9,7.66,9.57-6.93Z"/><path class="cls-1" d="M126.65,31.07l6.74,16,3.43,5.56-4.44-23.4A30.06,30.06,0,0,0,126.65,31.07Z"/><path class="cls-1" d="M134,57.92,109.16,51a30.66,30.66,0,0,0-1,6.33l25.77,1.21A3.39,3.39,0,0,1,134,57.92Z"/><path class="cls-1" d="M133.88,58.89l-25.79-1.22c0,.51,0,1,0,1.53a31.53,31.53,0,0,0,.39,4.89l25.5-4.57A4.48,4.48,0,0,1,133.88,58.89Z"/><path class="cls-1" d="M72.56,51.44a1,1,0,0,1-.08,1.37A37.68,37.68,0,0,1,73,57.48l.31.33,2.11.2.28-.16-7.8-24.22-2.93,2.49a36.17,36.17,0,0,1,7.21,15A.91.91,0,0,1,72.56,51.44Z"/><path class="cls-1" d="M134.9,61.49,113.69,76.86A30.44,30.44,0,0,0,118,81.75l17.32-19.82A6,6,0,0,1,134.9,61.49Z"/><path class="cls-1" d="M50.77,32.17l-12,22.29h.09l3.79-3.23L56.17,35.82A30.47,30.47,0,0,0,50.77,32.17Z"/><path class="cls-1" d="M47.26,59.16l19.8.93c0-.3,0-.59,0-.89,0-.56,0-1.12,0-1.67L52.32,56.1l-11,2Z"/><path class="cls-2" d="M138.38,22.61a36.38,36.38,0,0,0-16.68,4l.35,2.12,1.47,2.39a32,32,0,1,1-3.82,2.43L118,30.75a2.19,2.19,0,0,1-.3-.82l-.13-.78a36.51,36.51,0,1,0,20.86-6.54Z"/><path class="cls-3" d="M132.38,29.27l4.44,23.4.48.77L132.7,29.2Z"/><path class="cls-3" d="M144.08,89.17l-5-26.32a1.65,1.65,0,0,1-.32.06l5,26.32Z"/><path class="cls-3" d="M137.13,89.71,138.18,63h-.06l-.27,0-1,26.75Z"/><path class="cls-3" d="M138.51,54.49l1-25.85h-.32l-1,25.85Z"/><path class="cls-3" d="M139.49,54.7l6.83-25.09-.31-.08-6.83,25.08Z"/><path class="cls-3" d="M137,62.8l-7,25.71.31.09,7-25.72Z"/><path class="cls-3" d="M140.39,55.14l12.36-23-.29-.15L140.11,55A2.61,2.61,0,0,1,140.39,55.14Z"/><path class="cls-3" d="M136.09,62.46,123.57,85.8l.29.16L136.39,62.6Z"/><path class="cls-3" d="M141.16,55.76,158.46,36l-.25-.21L140.92,55.54Z"/><path class="cls-3" d="M135.33,61.93,118,81.75l.24.22,17.34-19.84Z"/><path class="cls-3" d="M141.75,56.53,163.18,41l-.2-.26L141.57,56.26A2.11,2.11,0,0,1,141.75,56.53Z"/><path class="cls-3" d="M134.7,61.24,113.5,76.6a2.48,2.48,0,0,0,.19.26L134.9,61.49Z"/><path class="cls-3" d="M142.15,57.41,166.65,47c-.05-.1-.09-.2-.13-.3L142,57.1C142.08,57.2,142.12,57.31,142.15,57.41Z"/><path class="cls-3" d="M134.23,60.43l-24,10.18c0,.1.08.2.13.3l24-10.19C134.32,60.62,134.27,60.53,134.23,60.43Z"/><path class="cls-3" d="M133.94,59.52l-25.5,4.57.06.32L134,59.83C134,59.73,134,59.63,133.94,59.52Z"/><path class="cls-3" d="M142.34,58.34l26.34-4.72-.06-.32L142.3,58C142.32,58.13,142.33,58.23,142.34,58.34Z"/><path class="cls-3" d="M169.12,60.22,142.35,59a3.16,3.16,0,0,1,0,.32l26.78,1.26Z"/><path class="cls-3" d="M133.87,58.72a.86.86,0,0,1,0-.16l-25.77-1.21c0,.11,0,.21,0,.32l25.79,1.22A1,1,0,0,1,133.87,58.72Z"/><path class="cls-3" d="M134,57.6l-24.77-6.89-.09.31L134,57.92C134,57.81,134,57.71,134,57.6Z"/><path class="cls-3" d="M168,67.07,142.2,59.88c0,.1-.06.2-.1.31L168,67.38Z"/><path class="cls-3" d="M111.68,44.76l22.43,12.15-.34-.55L111.83,44.48Z"/><path class="cls-3" d="M165.45,73.51,141.86,60.73l-.17.28L165.3,73.79Z"/><path class="cls-3" d="M115.51,39.21,132.29,54l-.58-.94L115.72,39Z"/><path class="cls-3" d="M161.48,79.21,141.33,61.49l-.22.24,20.16,17.72Z"/><path class="cls-3" d="M156.33,83.88,140.66,62.11a2.48,2.48,0,0,1-.26.19l15.66,21.77Z"/><path class="cls-3" d="M150.26,87.29,139.88,62.58l-.3.12L150,87.41Z"/><path class="cls-3" d="M126.36,31.2l5.93,14.13,1.1,1.78-6.74-16Z"/><path class="cls-4" d="M134,57.92a3.39,3.39,0,0,0-.07.64.86.86,0,0,0,0,.16,1,1,0,0,0,0,.17,4.48,4.48,0,0,0,.06.63c0,.11.05.21.08.31a3.86,3.86,0,0,0,.21.6c0,.1.09.19.14.29a5.69,5.69,0,0,0,.33.52l.2.25a6,6,0,0,0,.43.44l.26.2a5.39,5.39,0,0,0,.5.33l.3.14a3.38,3.38,0,0,0,.56.2l.31.08a3.81,3.81,0,0,0,.59.07l.27,0h.06a5.42,5.42,0,0,0,.58-.06,1.65,1.65,0,0,0,.32-.06,4.13,4.13,0,0,0,.5-.15l.3-.12a5.21,5.21,0,0,0,.52-.28,2.48,2.48,0,0,0,.26-.19,4.11,4.11,0,0,0,.45-.38l.22-.24a4.29,4.29,0,0,0,.36-.48l.17-.28a4.41,4.41,0,0,0,.24-.54c0-.11.07-.21.1-.31a5.79,5.79,0,0,0,.12-.6,3.16,3.16,0,0,0,0-.32,1.93,1.93,0,0,0,0-.24c0-.13,0-.25,0-.38s0-.21,0-.32a3.2,3.2,0,0,0-.15-.61c0-.1-.07-.21-.11-.31a4.37,4.37,0,0,0-.29-.57,2.11,2.11,0,0,0-.18-.27,3.31,3.31,0,0,0-.41-.5l-.24-.22a4.09,4.09,0,0,0-.53-.4,2.61,2.61,0,0,0-.28-.17c-.2-.1-.41-.19-.62-.27l-.31-.09a4.94,4.94,0,0,0-.67-.12h-.57l2,3.17a2.28,2.28,0,0,1-.74,3.12A2.26,2.26,0,0,1,136,60l-1.84-3q-.1.27-.18.54C134,57.71,134,57.81,134,57.92Z"/><path class="cls-5" d="M124.21,32.24c.7-.37,1.41-.72,2.15-1l.29-.13a30.06,30.06,0,0,1,5.73-1.8l.32-.07a31.11,31.11,0,0,1,5.92-.57h.9a30.86,30.86,0,0,1,6.49.89l.31.08a30.63,30.63,0,0,1,6.14,2.33l.29.15a31.18,31.18,0,0,1,5.46,3.66l.25.21A31.05,31.05,0,0,1,163,40.75l.2.26a31.1,31.1,0,0,1,3.34,5.69c0,.1.08.2.13.3a30.56,30.56,0,0,1,2,6.3l.06.32a31,31,0,0,1,.51,5.58,30.56,30.56,0,0,1-38.93,29.4l-.31-.09A30,30,0,0,1,123.86,86l-.29-.16A31.12,31.12,0,0,1,118.25,82l-.24-.22a30.44,30.44,0,0,1-4.32-4.89,2.48,2.48,0,0,1-.19-.26,29.85,29.85,0,0,1-3.11-5.69c0-.1-.09-.2-.13-.3a30.64,30.64,0,0,1-1.76-6.2l-.06-.32a31.53,31.53,0,0,1-.39-4.89c0-.52,0-1,0-1.53,0-.11,0-.21,0-.32a30.66,30.66,0,0,1,1-6.33l.09-.31a30.33,30.33,0,0,1,2.43-6l.15-.28a30.32,30.32,0,0,1,3.68-5.27l.21-.25a30.51,30.51,0,0,1,4.66-4.28l-.68-1.11a31.72,31.72,0,1,0,3.82-2.43Z"/><path class="cls-6" d="M75.78,60.45l-.72-.76a9.68,9.68,0,0,0-.87.82l.72.76A8.44,8.44,0,0,1,75.78,60.45Z"/><path class="cls-6" d="M73,57.78l.3,0L73,57.48C73,57.58,73,57.68,73,57.78Z"/><path class="cls-6" d="M73,58.1c0,.3,0,.59,0,.89v.25l.39.42a9.49,9.49,0,0,1,.86-.82l-.63-.68Z"/><path class="cls-5" d="M72.56,51.44a.91.91,0,0,0-.41-.29c.12.55.23,1.1.33,1.66A1,1,0,0,0,72.56,51.44Z"/><path class="cls-2" d="M72.84,62.44a8.49,8.49,0,0,0-.58,1.39l.41.08C72.74,63.42,72.79,62.93,72.84,62.44Z"/><path class="cls-2" d="M66.25,70.61l4.45,1.16c.21-.58.42-1.16.6-1.76a10.16,10.16,0,0,1-.63-3.51h0l-3-.57A32,32,0,0,1,66.25,70.61Z"/><path class="cls-2" d="M36.5,91.06A31.87,31.87,0,1,1,59.37,37L63,33.92a36.5,36.5,0,1,0,7.55,38.16l-4.45-1.17A31.9,31.9,0,0,1,36.5,91.06Z"/><path class="cls-2" d="M71.85,66.72a9.3,9.3,0,0,0,.09,1c.08-.33.15-.66.22-1Z"/><path class="cls-2" d="M73,59c0-.3,0-.59,0-.89l-4.66-.45c0,.51,0,1,0,1.55a32.92,32.92,0,0,1-.24,3.86l3,.55A10,10,0,0,1,73,60.11c0-.29,0-.58,0-.87Z"/><path class="cls-2" d="M68.31,57.32l4.67.46c0-.1,0-.2,0-.3a37.68,37.68,0,0,0-.49-4.67c-.1-.56-.21-1.11-.33-1.66a36.17,36.17,0,0,0-7.21-15l-3.64,3.1A31.68,31.68,0,0,1,68.31,57.32Z"/><polygon class="cls-3" points="42.2 89.05 37.32 63.36 36.98 63.27 41.88 89.11 42.2 89.05"/><path class="cls-3" d="M36.89,62.79l0,.12.35.09-.06-.27A1.7,1.7,0,0,1,36.89,62.79Z"/><path class="cls-3" d="M35.62,54.4,30.83,29.16l-.32.06L35.3,54.46Z"/><polygon class="cls-3" points="35.25 89.59 36.29 63.09 35.97 63 34.93 89.58 35.25 89.59"/><path class="cls-3" d="M36.63,54.37l1-25.72h-.32l-1,25.72Z"/><path class="cls-3" d="M37.68,54.35,44.4,29.66l-.31-.08L37.35,54.32Z"/><rect class="cls-3" x="18.36" y="75.51" width="26.68" height="0.32" transform="matrix(0.26, -0.96, 0.96, 0.26, -49.64, 86.37)"/><path class="cls-3" d="M38.36,54.93l.2-.17-.27,0-.06.11Z"/><path class="cls-3" d="M38.81,54.46l12-22.29L50.48,32l-12,22.41Z"/><path class="cls-3" d="M21.59,85.87l.28.16L34.44,62.6l-.12,0,0-.16-.14-.07Z"/><path class="cls-3" d="M33.46,61.81,16,81.82l.24.21L33.71,62Z"/><path class="cls-3" d="M56.17,35.82,42.69,51.24l1.69-1.43L56.42,36Z"/><path class="cls-3" d="M60.89,40.79l-9.57,6.93-3.13,2.67,12.89-9.34A2.48,2.48,0,0,0,60.89,40.79Z"/><path class="cls-3" d="M32.82,61.12,11.41,76.64l.18.26L33,61.37Z"/><path class="cls-3" d="M64.39,46.69,44.74,55l.68.06L64.52,47A2.55,2.55,0,0,0,64.39,46.69Z"/><path class="cls-3" d="M32.35,60.31,8.14,70.6l.12.3L32.49,60.6C32.44,60.5,32.39,60.41,32.35,60.31Z"/><path class="cls-3" d="M40.23,57.17l.05.12,4.51-1.92-.67-.07-3.39,1.45Z"/><path class="cls-3" d="M66.48,53.23,52.3,55.77l1.2.12,13-2.34Z"/><path class="cls-3" d="M32.07,59.4,6.31,64l.06.32,25.77-4.62C32.11,59.61,32.09,59.51,32.07,59.4Z"/><polygon class="cls-3" points="41.37 58.06 52.32 56.1 51.13 55.98 40.47 57.89 41.37 58.06"/><path class="cls-3" d="M32,58.6c0-.05,0-.1,0-.16L6,57.22c0,.11,0,.21,0,.32l26,1.23C32,58.71,32,58.66,32,58.6Z"/><path class="cls-3" d="M67.06,60.09l-19.8-.93,2.32.43L67,60.42C67.05,60.31,67.05,60.2,67.06,60.09Z"/><path class="cls-3" d="M32.14,57.48l-25-6.95-.09.31,25,7C32.09,57.69,32.12,57.59,32.14,57.48Z"/><path class="cls-3" d="M66.08,66.93,52,63l-3.67-.69L66,67.24Z"/><path class="cls-3" d="M32.51,56.57,9.82,44.29l-.16.28,22.7,12.29C32.41,56.76,32.45,56.67,32.51,56.57Z"/><path class="cls-3" d="M63.57,73.39,52.28,67.28,51,66.93l12.46,6.75Z"/><path class="cls-3" d="M39.9,60.75l-.09.14,9.95,5.39,1.32.35L40.4,60.85Z"/><path class="cls-3" d="M39.24,61.61l3.1,2.73.69.18-3.58-3.15Z"/><polygon class="cls-3" points="59.6 79.09 43.58 65 42.88 64.81 59.39 79.33 59.6 79.09"/><path class="cls-3" d="M33.08,55.76l-19.31-17-.22.24L32.87,56Z"/><path class="cls-3" d="M33.83,55.1l-15-20.84-.26.19,15,20.85Z"/><polygon class="cls-3" points="54.45 83.76 40.34 64.15 39.84 64.02 54.19 83.95 54.45 83.76"/><path class="cls-3" d="M38.52,62.18l1,1.42.49.13L38.79,62Z"/><path class="cls-3" d="M37.7,62.58l.26.61.39.1L38,62.46A1.34,1.34,0,0,1,37.7,62.58Z"/><path class="cls-3" d="M34.72,54.64,24.78,31l-.3.13,9.94,23.68Z"/><polygon class="cls-3" points="48.38 87.17 38.51 63.67 38.12 63.56 48.08 87.3 48.38 87.17"/><path class="cls-4" d="M37.2,62.73a3.65,3.65,0,0,0,.5-.15,1.34,1.34,0,0,0,.3-.12,4.3,4.3,0,0,0,.52-.28l.27-.19a5.32,5.32,0,0,0,.45-.38l.21-.24a4.29,4.29,0,0,0,.36-.48l.09-.14L36,60a1.46,1.46,0,0,1-.68-2.54l3-2.56-.13-.08-.31-.15-.7-.07,0-.15a4.1,4.1,0,0,0-.61-.11h-.39a4.21,4.21,0,0,0-.62,0l-.32.06a3.89,3.89,0,0,0-.58.18l-.3.13a3.84,3.84,0,0,0-.59.33l-.26.2a4.29,4.29,0,0,0-.49.46l-.21.25a4.1,4.1,0,0,0-.36.56c-.06.1-.1.19-.15.29a6.5,6.5,0,0,0-.22.62c0,.11,0,.21-.07.32a4.48,4.48,0,0,0-.07.64c0,.06,0,.11,0,.16s0,.11,0,.17a4.5,4.5,0,0,0,.07.63c0,.11,0,.21.07.32a5.89,5.89,0,0,0,.21.59c0,.1.09.19.14.29a4.59,4.59,0,0,0,.33.52l.2.25a4.57,4.57,0,0,0,.44.44l.25.2a4.45,4.45,0,0,0,.51.33l.14.07,0-.15,2.2.57.29,0A1.7,1.7,0,0,0,37.2,62.73Z"/><path class="cls-4" d="M40.23,57.17l-.65.56.84.15a3.9,3.9,0,0,0-.14-.59Z"/><path d="M118.71,7.54l18.68-.66V14c-.09.28-.61.8-2,1-4.56.66-5.35-.32-5.77-1.38A1.94,1.94,0,1,0,126,15.08c1.33,3.37,4.32,4.08,6.86,4.08a20,20,0,0,0,3.09-.28c4.19-.61,5.35-3.24,5.37-4.69V4.86a1.95,1.95,0,0,0-2-1.94l-22.77.81a2,2,0,0,0-1.4.67,1.92,1.92,0,0,0-.46,1.47l1,9.37,3.83-.75Z"/><path d="M66.94,17.58,63.52,5.12c-.69.23-1.44.46-2.31.66l-1.13.29L63.53,18.6Z"/><path class="cls-7" d="M63.52,5.12c2.1-.7,3.57-1.38,5.69-1,2.8.48,11.39.21,2.64-3.24-3-1.18-6.79-.48-10.52-.46S54.2-.27,51.57.11,47.9,0,47.23.87s.26,2.11.57,2.9c2,5.21,8.69,3.28,12.28,2.3l1.13-.29C62.08,5.58,62.83,5.35,63.52,5.12Z"/><path class="cls-5" d="M67.06,60.09c0,.11,0,.22,0,.33,0,.81-.09,1.61-.19,2.4l1.28.24a32.92,32.92,0,0,0,.24-3.86c0-.52,0-1,0-1.55L67,57.53c0,.55,0,1.11,0,1.67C67.07,59.5,67.06,59.79,67.06,60.09Z"/><path class="cls-5" d="M36.5,27.33A31.87,31.87,0,1,0,66.13,70.91l-1.26-.33c-.39,1-.82,1.9-1.3,2.81l-.15.29A30.54,30.54,0,0,1,21.87,86l-.28-.16A30.5,30.5,0,0,1,16.2,82L16,81.82a31.46,31.46,0,0,1-4.37-4.92l-.18-.26A30.74,30.74,0,0,1,8.26,70.9l-.12-.3a29.36,29.36,0,0,1-1.77-6.26L6.31,64a30.64,30.64,0,0,1-.38-4.82c0-.56,0-1.11.05-1.66,0-.11,0-.21,0-.32a30.51,30.51,0,0,1,1.09-6.38l.09-.31a31.22,31.22,0,0,1,2.48-6l.16-.28A31,31,0,0,1,13.55,39l.22-.24a30.36,30.36,0,0,1,4.8-4.33l.26-.19a30.66,30.66,0,0,1,5.65-3.17l.3-.13a30.14,30.14,0,0,1,5.73-1.74l.32-.06a30.28,30.28,0,0,1,5.67-.53h1.14a30.5,30.5,0,0,1,6.45.93l.31.08A29.82,29.82,0,0,1,50.48,32l.29.15a30.47,30.47,0,0,1,5.4,3.65l.25.21c.68.58,1.34,1.2,2,1.84l1-.84A31.75,31.75,0,0,0,36.5,27.33Z"/><path class="cls-5" d="M66.37,65.7c-.09.41-.19.82-.29,1.23l-.09.31a27.55,27.55,0,0,1-1,3l1.26.34a32,32,0,0,0,1.4-4.68Z"/><path class="cls-5" d="M61.08,41.05a29.69,29.69,0,0,1,3.31,5.64,2.55,2.55,0,0,1,.13.29,30.28,30.28,0,0,1,2,6.25l.06.32c.09.45.16.9.23,1.36l-.28.24a1,1,0,0,0-.14,1.42,1.07,1.07,0,0,0,.64.36c0,.09,0,.18,0,.27l1.31.12a31.68,31.68,0,0,0-7-18.1l-1,.84.57.73A2.48,2.48,0,0,1,61.08,41.05Z"/><polygon class="cls-8" points="83.81 64.31 82.55 66.5 82.92 67.16 85.08 64.31 83.81 64.31"/><path class="cls-8" d="M80.38,57.68a8.86,8.86,0,0,0-2.78.55l3.05.29Z"/><path class="cls-8" d="M79.82,58.77,77,58.49A10.36,10.36,0,0,0,76,59l.33,1A7.64,7.64,0,0,1,79.82,58.77Z"/><path class="cls-8" d="M72.9,66.91c0-.13,0-.27,0-.41a7.86,7.86,0,0,1,.4-2.48l-.62-.11-.41-.08a8.73,8.73,0,0,0-.42,2.67c0,.08,0,.15,0,.22l.31.06Z"/><path class="cls-8" d="M87,61.8l.6-.79a8.93,8.93,0,0,0-3.64-2.71l-.59.78A7.86,7.86,0,0,1,87,61.8Z"/><polygon class="cls-8" points="82.27 60.5 81.58 61.41 81.11 59.93 79.41 59.93 78.14 62.12 79.41 64.31 81.94 64.31 83.21 62.12 82.27 60.5"/><polygon class="cls-8" points="78.74 66.5 77.8 64.86 74.93 64.33 73.68 66.5 74.04 67.13 77.96 67.86 78.74 66.5"/><path class="cls-9" d="M118,30.75l1.75,2.82.68,1.11L131.71,53l.58.94,1.48,2.39.34.55.09.15L136,60a2.26,2.26,0,0,0,3.12.74,2.28,2.28,0,0,0,.74-3.12l-2-3.17-.64-1-.48-.77-3.43-5.56-1.1-1.78-8.08-13.09-.69-1.1-1.47-2.39-.35-2.12L119.8,15a2.38,2.38,0,0,0-.18-.57l-.2,0-3.83.75-.3.06a3.67,3.67,0,0,0,0,.46h0L69.59,24.2l-2.17-6.76-.48.14-3.41,1-.46.14L66.9,30.62,63,33.92,59.37,37l-1,.84-14,11.94-1.69,1.43L38.9,54.47l4,.39,5.25-4.47,3.13-2.67,9-7.66,1-.84,3.64-3.1,2.93-2.49,7.8,24.22A9.88,9.88,0,0,1,80,56.53l-9-28L112.22,21,84.67,57.34a10,10,0,0,1,3.64,2.71l28.17-37.21,1,6.31.13.78A2.19,2.19,0,0,0,118,30.75Z"/><path class="cls-8" d="M66.85,62.82,49.58,59.59l-2.32-.43-5.89-1.1-.9-.17h0l-.84-.15.65-.56.5-.42,1.86-1.59-4-.4-.2.17-3,2.56A1.46,1.46,0,0,0,36,60l3.86.72.5.1,8,1.48L52,63,66.37,65.7l1.28.23,3,.57a9.91,9.91,0,0,1,.43-2.89l-3-.55Z"/><path class="cls-10" d="M70.7,71.77l-4.45-1.16L65,70.27,51.08,66.63l-1.32-.35L43,64.52l-.69-.18L40,63.73l-.49-.13-1.2-.31-.39-.1-.7-.19-.35-.09-.31-.08-2.2-.57,0,.15,0,.16.12,0,.61.16.31.08L36,63l.32.09.69.18.34.09.8.2.39.11,1.33.35.5.13,2.54.66.7.19L51,66.93l1.32.35,12.59,3.3,1.26.33,4.45,1.17,2.21.57c-.11-.13-.21-.27-.31-.41Z"/><path class="cls-10" d="M80.73,74.39a9.16,9.16,0,0,0,2-.21,7.74,7.74,0,0,0,3.05-1.39l-.22-.23a7.8,7.8,0,0,1-8.36.92l-2.78-.73.51.47,3.64,1A9.62,9.62,0,0,0,80.73,74.39Z"/><path class="cls-10" d="M38.46,54.43l-.78-.08-.33,0h-.1v.17l0,.15.7.07.37,0,.27,0,4,.4,1.53.14.67.07,6.34.61,1.19.12L67,57.53l1.31.12L73,58.1l.63.06L75,58.3l.43-.29-2.11-.2-.3,0-4.67-.46L67,57.2,53.5,55.89l-1.2-.12-6.88-.67L44.74,55l-1.8-.18-4-.39h-.09Z"/><path class="cls-10" d="M80.67,58.72a7.78,7.78,0,0,1,7.79,7.78,7.71,7.71,0,0,1-1.59,4.71,5.66,5.66,0,0,1-.43.54l.23.24a7.82,7.82,0,0,0,1.89-4.53A9.11,9.11,0,0,0,87,61.8a7.86,7.86,0,0,0-3.63-2.72,7,7,0,0,0-1.71-.46l-1-.1-3.05-.29c-.21.08-.42.16-.63.26l2.85.28A7.92,7.92,0,0,1,80.67,58.72Z"/><path class="cls-11" d="M84.67,57.34a9.88,9.88,0,0,0-4-.84q-.33,0-.66,0a9.88,9.88,0,0,0-4.34,1.32l-.28.16L75,58.3c-.24.17-.48.35-.71.54a9.49,9.49,0,0,0-.86.82,5.92,5.92,0,0,0-.41.45,10,10,0,0,0-1.88,3.5,9.91,9.91,0,0,0-.43,2.89h0a9.89,9.89,0,0,0,1.81,5.74c.1.14.2.28.31.41a10,10,0,0,0,14.3,1.52l-.8-.85a8.85,8.85,0,0,1-11.35-.1l-.51-.47a8.81,8.81,0,0,1-2.49-5,9.3,9.3,0,0,1-.09-1c0-.07,0-.14,0-.22a8.73,8.73,0,0,1,.42-2.67,8.49,8.49,0,0,1,.58-1.39,8.93,8.93,0,0,1,1.35-1.93A8.86,8.86,0,0,1,76,59a10.36,10.36,0,0,1,.93-.5c.21-.1.42-.18.63-.26a8.86,8.86,0,0,1,2.78-.55h.29A8.82,8.82,0,0,1,87.15,72.5l.81.85a10,10,0,0,0-3.29-16Z"/><path class="cls-11" d="M88.46,66.5a7.78,7.78,0,0,0-7.79-7.78,7.92,7.92,0,0,0-.85.05A7.64,7.64,0,0,0,76.37,60a6.36,6.36,0,0,0-.59.43,8.44,8.44,0,0,0-.87.82,7.7,7.7,0,0,0-2,5.23c0,.14,0,.28,0,.41a7.79,7.79,0,0,0,12.67,5.65l-4.82-5.11h-.08a1,1,0,1,1,1-1,.51.51,0,0,1,0,.13l4.83,5.11c.15-.17.29-.34.43-.53A7.71,7.71,0,0,0,88.46,66.5ZM74.94,68.7,74,67.13l-.36-.63,1.25-2.17v0h2.54l.32.55.94,1.64L78,67.86l-.48.84Zm8.27,2.4-1.27,2.2H79.41l-1.27-2.2,1.27-2.19h2.53Zm-3.8-6.79-1.27-2.19,1.27-2.19h2.53l.33.57.94,1.62-1.27,2.19Zm4.4,4.39-.89-1.54-.37-.66,1.26-2.19h2.54l1.26,2.19-1.26,2.2Z"/><path class="cls-12" d="M86.67,72l-.23-.24h0l-4.83-5.11a.94.94,0,0,1-.86.82l4.82,5.11.22.23.5.53.8.85,4.12,4.36.88-.8L88,73.35l-.81-.85Z"/><path class="cls-5" d="M89.28,80.29a1,1,0,0,0,1.36,1.5l4.46-4.07a1,1,0,0,0-1.37-1.5l-1.64,1.51-.88.8Z"/><path class="cls-13" d="M80.67,65.55a1,1,0,0,0,0,1.91h.08a.94.94,0,0,0,.86-.82.51.51,0,0,0,0-.13A1,1,0,0,0,80.67,65.55Z"/></g></g></g></svg>