<svg xmlns="http://www.w3.org/2000/svg" viewBox="0 0 348.22 227.67"><defs><style>.cls-1{fill:#fa0200;}.cls-2{fill:#e30717;}.cls-3{fill:#231f20;}.cls-4{fill:#f7941e;}.cls-5{fill:#414042;}</style></defs><title>longboard</title><g id="Layer_2" data-name="Layer 2"><g id="Layer_22" data-name="Layer 22"><path class="cls-1" d="M46.67,202.16l14.76,23.48,32.21-25.16L76.19,178.67S66.13,175,53.71,184C42.16,192.47,46.67,202.16,46.67,202.16Z"/><path class="cls-2" d="M94.58,201.83c3.13,4.52-1.84,13.38-11.1,19.8s-19.31,8-22.44,3.45,1.84-13.38,11.1-19.8S91.45,197.32,94.58,201.83Z"/><path class="cls-3" d="M87.78,206.54c1.69,2.44-1.41,7.51-6.91,11.33s-11.35,4.94-13,2.5,1.4-7.5,6.91-11.32S86.09,204.11,87.78,206.54Z"/><path class="cls-1" d="M.87,142.26l14.76,23.49,32.21-25.17-17.45-21.8s-10.06-3.69-22.48,5.37C-3.64,132.58.87,142.26.87,142.26Z"/><path class="cls-2" d="M48.78,141.94c3.13,4.52-1.84,13.38-11.1,19.8s-19.31,8-22.44,3.45,1.84-13.38,11.1-19.8S45.65,137.42,48.78,141.94Z"/><path class="cls-3" d="M42,146.65c1.69,2.44-1.41,7.51-6.91,11.32s-11.35,4.94-13,2.51,1.4-7.5,6.91-11.32S40.29,144.22,42,146.65Z"/><path class="cls-3" d="M272.45,93.36c-2.58,1.43-5.24,2.87-8,4.34h0l3.35,4.89c5.2-.15,7-6.33,7-6.33l-2.25-2.91Z"/><path class="cls-1" d="M266,118.77l17.25,16.54,21.66-27.76L285.8,93s-9.19-1-17.67,9.19C260.23,111.62,266,118.77,266,118.77Z"/><path class="cls-2" d="M306,108.48c3.56,3.13,1.26,11.57-5.13,18.87s-14.48,10.7-18,7.58-1.25-11.57,5.14-18.87S302.44,105.36,306,108.48Z"/><path class="cls-3" d="M301.31,113.84c1.92,1.69.39,6.57-3.41,10.91s-8.45,6.5-10.37,4.82-.39-6.56,3.41-10.91S299.39,112.16,301.31,113.84Z"/><path class="cls-3" d="M34.86,164.31l16.71,21.46h0A24.23,24.23,0,0,1,53.71,184a33.14,33.14,0,0,1,8.89-4.71c-4-7,7.12-14.42,7.12-14.42A105.29,105.29,0,0,1,34.86,164.31Z"/><path class="cls-4" d="M10.64,155.77v-4.66s12.79,14.31,58.63,8.61S245,116.26,308.38,65.6c0,0,37.83-31.63,39.84-41.69v4.52S333.88,52,300.28,76.12s-123,68.24-230.56,88.79C69.72,164.91,37.69,170.87,10.64,155.77Z"/><path class="cls-5" d="M69.27,159.72C115.11,154,245,116.26,308.38,65.6c0,0,37.83-31.63,39.84-41.69L323.81,0s-22.9,14.59-73.48,23.91-146.71,42.27-196.54,70-43.15,57.25-43.15,57.25S23.43,165.42,69.27,159.72Z"/></g></g></svg>