<svg xmlns="http://www.w3.org/2000/svg" viewBox="0 0 296.02 243.14"><defs><style>.cls-1{fill:#1fba9a;}.cls-2{opacity:0.14;}.cls-3{fill:#194f69;}.cls-4{fill:#aad53f;}.cls-5{opacity:0.49;}.cls-6{fill:#fff;}</style></defs><title>scooter</title><g id="Layer_2" data-name="Layer 2"><g id="_1" data-name="1"><rect class="cls-1" x="87.1" y="204.73" width="176.9" height="11.09"/><polygon class="cls-1" points="87.1 215.82 54.15 160.98 57.64 151.4 100.84 204.88 87.1 215.82"/><g class="cls-2"><polygon points="91.27 209.21 54.15 160.98 54.15 160.98 87.1 215.82 264 215.82 264 211.61 91.27 209.21"/></g><rect class="cls-3" x="-35" y="108.49" width="213.46" height="8.53" transform="translate(-58.78 141.52) rotate(-69.97)"/><path class="cls-1" d="M283.92,213a22.48,22.48,0,1,1-22.47-22.48A22.47,22.47,0,0,1,283.92,213Z"/><path class="cls-3" d="M231.34,213a30.11,30.11,0,0,1,30.11-30.11h0A30.11,30.11,0,0,1,291.55,213h0a30.11,30.11,0,0,1-30.1,30.11h0A30.1,30.1,0,0,1,231.34,213Zm15.26,0a14.87,14.87,0,0,0,14.85,14.85h0A14.87,14.87,0,0,0,276.29,213h0a14.88,14.88,0,0,0-14.84-14.85h0A14.87,14.87,0,0,0,246.6,213Z"/><path class="cls-4" d="M219.88,209.3c12.81-47.33,58.35-31,58.35-31,10.15,2.84,17.79,12.21,17.79,12.21l-12.1,1.9c-42.38-12.64-52.29,17.82-52.29,17.82Z"/><g class="cls-2"><path d="M228.36,210c13.63-35.27,47.83-23.91,47.83-23.91,7.38,2.31,10.4,5.93,10.4,5.93l-2.67.42c-42.38-12.64-52.29,17.82-52.29,17.82Z"/></g><path class="cls-1" d="M57.64,213a22.48,22.48,0,1,1-22.48-22.48A22.48,22.48,0,0,1,57.64,213Z"/><path class="cls-3" d="M5.06,213a30.11,30.11,0,0,1,30.1-30.11h0A30.12,30.12,0,0,1,65.27,213h0a30.12,30.12,0,0,1-30.11,30.11h0A30.1,30.1,0,0,1,5.06,213Zm15.26,0a14.87,14.87,0,0,0,14.84,14.85h0A14.88,14.88,0,0,0,50,213h0a14.88,14.88,0,0,0-14.85-14.85h0A14.87,14.87,0,0,0,20.32,213Z"/><path class="cls-1" d="M94.46,6.22c-1,2.56-3.41,4-5.38,3.23s-2.77-3.47-1.77-6,3.41-4,5.39-3.22S95.46,3.67,94.46,6.22Z"/><rect class="cls-1" x="104.03" y="-9.07" width="8.54" height="39.79" transform="translate(62.96 109.78) rotate(-71.1)"/><path class="cls-4" d="M130.93,18.67c-1,2.56-3.41,4-5.38,3.23s-2.76-3.47-1.76-6,3.4-4,5.37-3.22S131.93,16.12,130.93,18.67Z"/><path class="cls-4" d="M76.14,209.3c-12.81-47.33-58.35-31-58.35-31C8.72,181.18,0,190.55,0,190.55l12.1,1.9c42.39-12.64,52.66,17.82,52.66,17.82Z"/><g class="cls-2"><path d="M67.71,210C55.15,177.81,25.53,186.1,25.53,186.1c-10.14,2.49-15.85,6-15.85,6l2.42.38c42.39-12.64,52.66,17.82,52.66,17.82Z"/></g><path class="cls-3" d="M40.5,213a5.34,5.34,0,1,1-5.34-5.33A5.34,5.34,0,0,1,40.5,213Z"/><path class="cls-3" d="M266.78,213a5.34,5.34,0,1,1-5.33-5.33A5.33,5.33,0,0,1,266.78,213Z"/><rect class="cls-4" x="29.74" y="145.11" width="54.93" height="14.94" transform="translate(-105.74 154.05) rotate(-69.96)"/><g class="cls-5"><path class="cls-6" d="M123.84,14,94.58,4.24a.85.85,0,0,1-.53-1.07h0a.84.84,0,0,1,1.07-.53l29.25,9.79a.84.84,0,0,1,.54,1.07h0A.86.86,0,0,1,123.84,14Z"/></g><g class="cls-5"><path class="cls-6" d="M3.2,188.84c34.87-27.49,61.25.13,61.25.13,5.16,4.85,10.67,18.73,10.67,18.73l-5.61.61C51.11,156.42,3.2,188.84,3.2,188.84Z"/></g><g class="cls-5"><path class="cls-6" d="M223.53,209l-3-.39c14.87-44.89,54.84-30.4,54.84-30.4,8.88,2.46,18.94,11.38,18.94,11.38C241,155,223.53,209,223.53,209Z"/></g><g class="cls-5"><polygon class="cls-6" points="60.57 125.45 64.72 126.97 46.7 178.6 41.75 177.06 60.57 125.45"/></g><g class="cls-5"><polygon class="cls-6" points="103.41 13.68 62.67 125.33 64.71 126.08 105.36 14.34 103.41 13.68"/></g></g></g></svg>